<svg width="105" height="78" viewBox="0 0 105 78" fill="none" xmlns="http://www.w3.org/2000/svg">
<circle cx="25" cy="25" r="25" fill="#E9FCEF"/>
<path d="M79.691 71.109H29.949C23.8943 71.0817 19 66.1637 19 60.109V27C19 20.9219 23.9258 16 30 16H79.691C85.7457 16.0273 90.64 20.9414 90.64 27V60.156C90.6127 66.1951 85.7259 71.082 79.691 71.109ZM29.949 21.047C26.656 21.0743 23.9998 23.754 23.9998 27.047V60.156C23.9998 63.4529 26.656 66.1287 29.949 66.156H79.691C82.984 66.1287 85.6402 63.4529 85.6402 60.156V27C85.6402 23.7031 82.984 21.0273 79.691 21L29.949 21.047Z" fill="#2BB8C0"/>
<path d="M54.8202 49.8596C51.91 49.8674 49.121 48.7112 47.0702 46.6487L22.7422 22.2967C21.8555 21.3084 21.8984 19.8006 22.8359 18.8631C23.7734 17.9256 25.2812 17.8826 26.2695 18.7693L50.6215 43.1093C51.7348 44.2265 53.2504 44.8593 54.8324 44.8593C56.4105 44.8593 57.9262 44.2265 59.0394 43.1093L83.3714 18.7773C84.348 17.8008 85.9339 17.8008 86.9105 18.7773C87.8871 19.7539 87.8871 21.3398 86.9105 22.3164L62.5825 46.6484C60.5278 48.7148 57.7303 49.8714 54.8202 49.8596Z" fill="#2BB8C0"/>
<path d="M85.1601 69.1172C84.496 69.1172 83.8593 68.8516 83.3906 68.379L60.3906 45.379C59.5078 44.3907 59.5469 42.8829 60.4883 41.9454C61.4258 41.0079 62.9297 40.9649 63.9219 41.8477L86.9219 64.8477C87.3906 65.3164 87.6523 65.9493 87.6523 66.6133C87.6523 67.2774 87.3906 67.9102 86.9219 68.3789C86.457 68.8516 85.8241 69.1172 85.1601 69.1172Z" fill="#2BB8C0"/>
<path d="M24.4921 69.1167C23.4843 69.1089 22.578 68.4995 22.1913 67.5698C21.8046 66.6362 22.0116 65.5659 22.7186 64.8471L45.7186 41.7881C46.6991 40.8115 48.2811 40.8115 49.2616 41.7881C50.2382 42.7646 50.2382 44.3506 49.2616 45.3272L26.2616 68.3272C25.8007 68.8194 25.1639 69.105 24.4921 69.1167Z" fill="#2BB8C0"/>
<rect x="71" y="44" width="34" height="34" rx="17" fill="#022E37"/>
<path d="M97.4219 52.6436L99.3506 54.5439L99.7129 54.9004L99.3506 55.2559L85.0342 69.3564L84.6826 69.7021L84.332 69.3564L76.6494 61.79L76.2871 61.4336L76.6494 61.0771L78.5781 59.1768L78.9297 58.832L79.2803 59.1768L84.6826 64.4971L96.7197 52.6436L97.0703 52.2979L97.4219 52.6436Z" fill="#2BB8C0" stroke="#2BB8C0"/>
</svg>
